<?xml version="1.0" standalone="no"?>
<!DOCTYPE svg PUBLIC "-//W3C//DTD SVG 20010904//EN"
 "http://www.w3.org/TR/2001/REC-SVG-20010904/DTD/svg10.dtd">
<svg version="1.0" xmlns="http://www.w3.org/2000/svg"
 width="297.000000pt" height="206.000000pt" viewBox="0 0 297.000000 206.000000"
 preserveAspectRatio="xMidYMid meet">

<g transform="translate(0.000000,206.000000) scale(0.100000,-0.100000)"
fill="#000000" stroke="none">
<path d="M1360 1661 c0 -5 9 -15 19 -22 10 -8 40 -32 66 -54 l48 -40 248 0
c136 0 241 4 233 8 -62 35 -242 91 -329 103 -113 15 -285 18 -285 5z"/>
<path d="M1160 1643 c-37 -6 -120 -34 -120 -40 0 -3 14 -21 30 -40 17 -18 30
-38 30 -43 0 -11 169 -12 265 -1 l60 6 -50 52 c-64 65 -119 82 -215 66z"/>
<path d="M845 1534 c-82 -68 -116 -99 -80 -74 45 32 172 140 165 140 -3 0 -41
-30 -85 -66z"/>
<path d="M949 1562 c-24 -16 -52 -38 -62 -49 -17 -19 -16 -20 40 -16 87 6 143
14 143 20 0 14 -52 73 -64 73 -6 0 -32 -13 -57 -28z"/>
<path d="M1845 1520 c-39 -7 -39 -7 -7 -9 65 -2 284 -42 310 -55 15 -8 49 -33
76 -57 l48 -43 -21 42 c-12 24 -19 47 -16 52 3 6 50 10 103 11 l97 1 -55 14
c-121 29 -458 57 -535 44z"/>
<path d="M1947 1438 c-23 -12 -21 -25 8 -53 28 -29 82 -34 92 -10 12 33 -66
83 -100 63z"/>
<path d="M2087 1443 c-14 -14 -6 -50 16 -70 46 -43 95 -37 83 10 -8 34 -81 79
-99 60z"/>
<path d="M2308 1443 c-27 -2 -48 -9 -48 -14 0 -24 54 -99 73 -103 12 -3 64 -7
115 -10 89 -5 92 -4 92 17 0 12 -8 38 -18 57 -14 28 -26 36 -67 47 -27 7 -61
12 -75 11 -14 -1 -46 -3 -72 -5z"/>
<path d="M2550 1359 c12 -23 24 -39 27 -36 7 8 -27 77 -38 77 -5 0 0 -18 11
-41z"/>
<path d="M2201 1374 c0 -11 3 -14 6 -6 3 7 2 16 -1 19 -3 4 -6 -2 -5 -13z"/>
<path d="M1729 1325 c46 -90 35 -223 -24 -282 -38 -38 -34 -41 13 -13 45 28
65 79 66 165 0 74 -14 114 -54 150 l-22 20 21 -40z"/>
<path d="M890 1274 c0 -5 7 -20 16 -32 14 -20 22 -22 107 -20 l92 1 -82 6
c-68 6 -87 11 -108 31 -14 13 -25 19 -25 14z"/>
<path d="M1203 1213 c15 -2 37 -2 50 0 12 2 0 4 -28 4 -27 0 -38 -2 -22 -4z"/>
<path d="M1038 1173 c46 -2 118 -2 160 0 42 1 5 3 -83 3 -88 0 -123 -2 -77 -3z"/>
<path d="M1846 1133 c4 -21 8 -40 10 -42 8 -9 212 -20 364 -20 176 0 350 13
380 29 24 13 28 55 4 46 -50 -19 -178 -28 -352 -24 -178 4 -194 6 -222 26 -24
18 -43 22 -110 22 l-81 0 7 -37z"/>
<path d="M788 1113 c6 -2 18 -2 25 0 6 3 1 5 -13 5 -14 0 -19 -2 -12 -5z"/>
<path d="M920 1094 c41 -8 134 -16 205 -18 72 -2 110 -2 85 0 -25 3 -107 11
-184 19 -167 18 -208 17 -106 -1z"/>
<path d="M1787 1089 c-4 -15 -24 -41 -44 -59 l-37 -33 52 5 c31 3 61 13 73 24
l21 19 -24 5 c-16 4 -25 15 -28 35 l-6 30 -7 -26z"/>
<path d="M2315 1041 l-110 -6 46 -22 c55 -28 100 -29 155 -4 46 21 66 42 37
39 -10 -1 -67 -4 -128 -7z"/>
<path d="M722 828 c-17 -17 -17 -429 0 -446 21 -21 57 -14 63 11 3 12 4 116 3
232 l-3 210 -25 3 c-14 2 -31 -3 -38 -10z"/>
<path d="M1057 833 c-4 -3 -7 -84 -7 -179 0 -193 -5 -209 -70 -223 -29 -6 -35
-11 -35 -31 0 -22 5 -25 40 -28 54 -3 106 24 127 68 15 29 18 63 18 206 0 119
-4 174 -12 182 -13 13 -50 16 -61 5z"/>
<path d="M1477 793 c-71 -142 -178 -395 -173 -408 3 -8 17 -15 31 -15 22 0 30
9 51 55 l25 55 117 0 117 0 25 -53 c20 -41 31 -53 51 -55 17 -2 29 3 32 12 7
16 -164 408 -191 439 -28 32 -59 22 -85 -30z m97 -145 c20 -48 36 -92 36 -97
0 -7 -32 -11 -86 -11 -65 0 -85 3 -81 13 56 139 82 196 88 190 4 -5 23 -47 43
-95z"/>
<path d="M1942 827 c-9 -11 -12 -72 -10 -233 l3 -219 29 -3 c16 -2 32 2 37 10
5 7 9 50 9 96 l0 82 50 0 c62 0 78 -15 133 -118 33 -64 41 -72 66 -72 16 0 31
6 34 15 7 17 -49 129 -79 158 l-22 21 32 21 c88 58 82 188 -10 235 -43 21
-256 27 -272 7z m210 -57 c42 -12 58 -34 58 -79 0 -49 -38 -71 -126 -71 l-74
0 0 80 0 80 53 0 c28 0 69 -5 89 -10z"/>
</g>
</svg>
